<svg width="256" height="227" xmlns="http://www.w3.org/2000/svg" preserveAspectRatio="xMidYMid"><path d="M159.032 16.274C149.605 1.908 147.36 0 128.168 0h-.449c-19.191 0-21.324 1.908-30.863 16.274C87.989 29.74 0 190.906 0 195.395c0 6.51 1.683 12.682 7.744 21.436 6.173 8.867 16.835 13.805 24.579 5.948 5.275-5.274 61.727-102.58 89-139.391 3.254-4.602 9.988-4.602 13.355 0 27.272 36.812 83.724 134.117 89 139.391 7.743 7.857 18.405 2.919 24.578-5.948 6.06-8.754 7.744-14.927 7.744-21.436-.112-4.49-88.102-165.766-96.968-179.121z" fill="#1173B6"/></svg>