<?xml version="1.0" encoding="UTF-8"?>
<svg width="205px" height="252px" viewBox="0 0 205 252" version="1.1" xmlns="http://www.w3.org/2000/svg" xmlns:xlink="http://www.w3.org/1999/xlink">
    <!-- Generator: Sketch 49 (51002) - http://www.bohemiancoding.com/sketch -->
    <title>haml_logo</title>
    <desc>Created with Sketch.</desc>
    <defs></defs>
    <g id="Page-1" stroke="none" stroke-width="1" fill="none" fill-rule="evenodd">
        <g id="haml_logo" fill-rule="nonzero">
            <path d="M95.62,126.36 L78.4,249.3 C78.4,249.3 50.33,259.6 24.88,238.08 L52.76,118.88 L0.18,12.2 C0.18,12.2 20.95,3.4 34.24,6.4 L80.46,93.6 L160.56,25.5 C160.56,25.5 187.51,34.85 189.94,43.83 L95.62,126.36 Z" id="Shape" fill="#ECDFA7"></path>
            <path d="M201.36,138.7 C200.06,136.1 198.36,133.66 196.49,131.4 C192.74,127.1 188.25,123.55 183.39,120.74 C178.69,117.74 173.46,115.31 168.22,113.64 L166.16,113.07 C165.6,112.87 165.04,112.7 164.48,112.51 C163.35,112.15 162.41,111.58 161.48,111.21 C159.61,110.09 158.3,108.96 157.36,107.47 C155.49,104.67 155.3,100.37 156.24,95.87 C156.44,94.75 156.8,93.62 157.18,92.5 C157.55,91.37 157.93,90.24 158.3,88.93 C158.67,87.25 158.86,85.56 158.86,83.5 L159.8,82.75 L171.03,73.39 C173.09,71.69 175.15,69.82 177.21,68.14 C177.96,68.51 178.71,69.08 179.27,69.44 C179.27,69.44 185.07,70.01 188.24,61.22 L186.56,60.1 L187.66,59.17 L190.48,56.74 C191.42,55.99 192.16,55.06 192.54,53.37 C190.86,53.17 189.74,53.74 188.8,54.49 L185.8,56.73 L183.75,58.23 L157.91,40.45 C159.21,39.33 160.34,38.39 161.65,37.27 L167.08,32.4 C167.28,32.22 167.45,32.04 167.64,31.85 C168.19,32.22 168.57,32.6 169.14,32.97 C170.44,33.91 171.94,34.84 173.24,35.59 L181.48,40.07 C184.1,41.57 186.91,43.07 189.71,44.37 C191.01,45.12 192.51,45.67 194.01,46.24 C194.76,46.44 195.51,46.8 196.26,46.99 C196.63,46.99 197.2,47.19 197.56,47.19 L198.51,47.19 C198.88,47.19 199.26,46.99 199.63,46.43 L199.63,46.23 C199.63,46.05 199.63,45.87 199.81,45.68 L199.81,44.92 C199.81,44.55 199.61,44.36 199.44,44.17 C199.26,43.79 198.89,43.41 198.7,43.04 C198.14,42.48 197.58,41.74 197.02,41.36 C195.9,40.23 194.59,39.29 193.46,38.36 C191.03,36.49 188.41,34.8 185.79,33.12 C183.17,31.44 180.55,29.94 177.74,28.62 C176.44,27.88 174.94,27.32 173.44,26.76 C172.69,26.56 171.94,26.2 171.01,26.01 C170.64,26.01 170.07,25.81 169.51,25.81 C169.14,25.81 168.95,25.81 168.39,26.01 C168.02,26.21 167.45,26.38 166.89,26.95 C165.59,27.5 164.46,28.05 163.52,28.81 L157.92,31.99 C156.22,33.29 154.35,34.79 152.67,36.11 L150.8,34.81 C150.8,34.81 142.94,35.55 145.56,40.61 C145.56,40.61 145.76,40.79 146.31,41.35 C138.81,47.53 131.53,53.89 124.23,60.05 C116.73,66.42 109.43,72.79 101.95,79.35 L90.91,89.07 C90.35,89.63 89.79,90.19 89.04,90.75 C88.68,89.63 88.11,88.69 87.74,87.75 L85.12,82.15 L80.07,70.92 C76.7,63.42 73.33,55.95 69.77,48.46 L59.3,26.2 L57.62,22.83 L59.87,22.83 C59.87,22.83 60.62,16.65 56.13,15.53 C56.13,15.53 55.37,15.53 54.25,15.73 C52.57,12.35 51.07,8.98 49.38,5.61 L48.63,2.81 C48.43,1.86 47.88,1.49 47.51,1.11 C47.14,0.93 46.76,0.75 46.57,0.75 C46.01,0.55 45.63,0.55 45.07,0.37 C44.13,0.17 43.39,0.17 42.64,0.17 C40.97,0.17 39.47,0.37 37.97,0.55 C34.97,0.92 31.79,1.49 28.8,2.23 C25.8,2.98 22.8,3.73 19.82,4.66 C18.32,5.23 16.82,5.61 15.52,6.36 L13.27,7.46 C12.9,7.66 12.52,8.03 12.15,8.22 C11.97,8.42 11.79,8.59 11.6,8.78 C11.4,8.98 11.4,9.15 11.23,9.34 L11.23,10.1 C11.43,10.84 11.79,11.03 12.17,11.2 C12.54,11.4 12.73,11.58 12.92,11.58 C13.48,11.78 13.86,11.78 14.22,11.95 C14.98,12.13 15.92,12.13 16.66,12.13 C18.16,12.13 19.86,11.93 21.36,11.76 C24.34,11.4 27.53,11.02 30.52,10.46 L39.69,8.96 C41.19,8.76 42.69,8.4 44.37,8.02 C45.69,10.64 47,13.45 48.31,16.07 C39.71,16.83 26.23,17.95 17.81,18.89 C16.87,17.21 16.13,15.71 15.19,14.02 C14.99,13.65 14.44,13.27 13.89,13.46 C13.32,13.64 13.13,14.2 13.32,14.76 C13.88,16.26 14.44,17.56 15,19.06 C12.38,19.43 10.7,19.81 10.5,20.18 C9.57,21.86 12.38,30.66 16.12,32.91 C16.12,32.91 17.62,32.35 20.24,31.79 C21.54,34.79 22.86,37.79 24.17,40.77 L35.4,66.23 L46.82,91.68 C50.56,100.11 54.49,108.53 58.42,117.14 C58.42,117.14 58.42,117.34 58.62,117.34 L56.92,122.94 L52.44,138.66 C49.64,149.14 47.01,159.81 44.39,170.29 L40.46,186.21 L36.71,202.11 C34.09,212.79 31.66,223.27 28.66,233.75 C28.66,233.95 28.66,234.31 28.86,234.5 C30.36,236.57 32.41,238.07 34.28,239.56 C36.34,241.06 38.4,242.18 40.46,243.3 C44.76,245.55 49.26,247.23 53.93,248.73 C58.61,250.03 63.47,250.98 68.53,251.16 C70.96,251.36 73.58,251.16 76.03,250.79 C78.45,250.41 80.89,250.03 83.51,249.29 C84.26,249.09 84.81,248.34 85.01,247.59 L85.01,247.41 C87.07,237.11 88.75,226.64 90.61,216.34 L95.86,185.09 C97.54,174.61 99.42,164.32 101.1,153.84 C101.3,152.72 101.47,151.41 101.66,150.28 C102.03,150.64 102.22,151.21 102.6,151.58 C104.47,153.83 106.72,155.7 108.96,157.38 C113.46,160.56 118.32,162.98 123.18,164.88 C128.05,166.74 133.1,168.24 138.15,169.36 C141.51,170.11 144.69,170.66 148.05,171.04 C146.55,174.41 145.63,177.96 145.81,181.89 C145.81,182.27 146.01,182.65 146.37,182.84 L146.57,182.84 C150.12,184.71 153.87,186.21 157.97,187.14 C161.91,187.89 166.21,188.26 170.33,187.7 C174.63,187.15 178.93,185.46 182.31,182.66 C185.69,179.86 188.11,176.11 189.61,172.18 L189.81,171.98 L189.81,171.8 L190.36,166.75 L190.36,166.55 C192.24,165.45 194.11,164.31 195.98,162.82 C198.23,160.95 200.28,158.89 201.78,156.27 C203.28,153.65 204.21,150.47 204.03,147.29 C203.75,144.32 202.63,141.32 201.33,138.69 L201.36,138.7 Z M184.5,34.47 C187.13,35.97 189.56,37.47 192,39.34 C193.12,40.28 194.43,41.02 195.56,42.14 C196.12,42.71 196.68,43.09 197.06,43.64 L197.43,44.02 L197.06,44.02 C196.31,43.82 195.76,43.65 195,43.46 C193.7,42.9 192.2,42.34 190.88,41.78 C188.26,40.48 185.45,39.16 183.02,37.48 C180.59,35.8 178.15,33.92 176.1,31.88 C175.35,31.12 174.6,30.38 174.04,29.62 L176.84,30.74 C179.27,31.67 181.89,32.98 184.51,34.47 L184.5,34.47 Z M171.8,26.24 L171.98,26.44 L171.98,26.82 C171.98,26.82 171.98,26.62 171.78,26.62 L171.78,26.24 L171.8,26.24 Z M38.35,5.28 C35.75,6.58 32.75,7.53 29.95,8.28 C26.95,9.02 24.15,9.58 21.15,9.78 C19.65,9.96 18.15,9.96 16.65,9.96 C15.9,9.96 15.15,9.96 14.59,9.76 L14.02,9.76 C14.22,9.76 14.22,9.58 14.39,9.58 C14.95,9.21 15.69,9.02 16.26,8.64 C17.56,8.08 19.06,7.7 20.38,7.14 C23.18,6.39 26.18,5.64 29.18,5.08 C32.16,4.52 35.16,4.14 37.98,3.96 C38.91,3.96 39.84,3.96 40.78,3.76 C40.21,4.34 39.28,4.72 38.34,5.28 L38.35,5.28 Z M168.23,69.1 L156.63,78.08 L145.03,87.25 C141.85,89.87 138.67,92.49 135.49,94.92 C135.67,94.72 135.85,94.36 136.04,94.17 C137.54,92.11 139.04,90.24 140.54,88.37 C143.71,84.63 146.71,80.7 150.07,77.14 C153.44,73.58 156.99,70.04 160.55,66.84 C162.42,65.17 164.29,63.67 166.35,62.36 L168.03,61.24 C169.71,62.54 171.59,63.86 173.27,65.17 C171.77,66.47 169.91,67.79 168.22,69.1 L168.23,69.1 Z M31.06,46.08 L32,47.02 C33.87,48.89 35.74,50.76 37.24,52.82 C38.74,54.88 40.04,57.12 40.61,59.37 C40.99,61.24 40.99,63.3 40.06,64.97 L39.86,64.42 L31.06,46.08 Z M40.23,65.54 C40.79,64.98 41.17,64.24 41.53,63.29 C42.1,61.97 42.1,60.47 41.91,59.16 C41.55,56.36 40.24,53.73 38.55,51.66 C36.12,48.49 33.12,45.86 29.75,43.62 L27.69,39.32 C26.39,36.52 25.07,33.72 23.57,31.09 C26.37,30.34 29.75,29.22 33.49,28.29 C36.86,33.71 39.85,39.32 42.66,45.12 C45.84,52.42 49.02,60.09 49.58,67.95 C49.78,69.82 49.58,71.88 49.58,73.95 C49.58,76 49.58,78.05 49.78,80.12 C49.96,82.92 50.52,85.92 51.08,88.72 L40.24,65.52 L40.23,65.54 Z M84.39,218.06 C83.82,218.81 83.44,219.36 82.69,219.93 C81.76,220.68 80.83,221.05 79.71,220.87 C78.77,220.67 78.03,219.75 77.65,218.81 C77.28,217.88 76.9,216.76 76.9,215.64 C76.72,213.39 76.72,211.14 77.28,208.9 C77.65,206.64 78.4,204.6 79.34,202.53 C79.9,201.59 80.46,200.66 81.21,199.91 C81.97,199.17 82.91,198.61 83.84,198.81 C84.78,198.81 85.71,199.74 86.27,200.67 C86.64,201.23 86.83,201.79 87.02,202.35 L84.78,215.65 C84.6,216.57 84.6,217.32 84.41,218.07 L84.39,218.06 Z M95.42,153.5 L92.05,173.15 C91.85,171.85 91.49,170.53 91.11,169.22 C90.17,165.66 89.05,162.3 87.93,158.92 C85.5,152.19 82.69,145.64 79.33,139.47 C81.38,146.39 83.81,152.94 86.23,159.67 C87.55,163.05 88.67,166.42 89.8,169.6 L91.5,174.65 C91.5,174.85 91.68,175.21 91.68,175.4 C91.12,178.4 90.56,181.4 90.18,184.57 L87.38,201.6 C87.18,201.23 87.18,200.85 87,200.48 C86.44,199.36 85.7,198.23 84.2,197.86 C82.88,197.49 81.57,198.23 80.45,198.98 C79.51,199.73 78.77,200.85 78.02,201.78 C76.72,203.85 75.96,206.28 75.59,208.53 C75.21,210.96 75.02,213.4 75.59,215.83 C75.77,216.95 76.14,218.26 76.89,219.39 C77.45,220.49 78.57,221.63 79.89,221.81 C81.19,222.01 82.49,221.25 83.25,220.31 C83.62,219.94 84,219.37 84.37,219.01 C83.07,227.81 81.57,236.59 80.25,245.57 C78.57,246.13 76.88,246.51 75.2,246.69 C72.96,247.06 70.72,247.25 68.47,247.44 C63.79,247.64 59.3,247.24 54.62,246.14 C50.12,245.19 45.45,243.7 41.15,241.84 C37.03,239.96 33.1,237.54 30.11,234.16 C32.93,223.86 36.11,213.56 39.29,203.28 L44.16,187.74 L48.84,172.02 C52.02,161.54 55.2,151.06 58.2,140.58 C59.7,135.34 61,130.1 62.5,124.86 C63.6,119.43 65.86,114.38 64.17,108.39 L64.17,108.21 C63.97,108.01 63.8,108.01 63.8,108.21 C62.86,109.15 62.3,109.89 61.55,110.83 C59.49,106.15 57.25,101.66 55.19,96.98 C54.62,95.28 54.06,93.6 53.69,91.73 C52.74,87.8 51.99,83.87 51.81,79.93 C51.61,77.88 51.61,76.01 51.61,73.95 C51.61,71.89 51.81,69.83 51.61,67.77 C50.87,59.53 47.69,51.67 44.13,44.37 C41.33,38.57 37.95,33.14 34.21,27.9 C40.39,26.22 46.94,24.53 52.18,23.6 C52.92,25.28 53.85,26.78 54.6,28.47 L65.83,50.55 C69.57,57.85 73.33,65.15 77.06,72.45 L82.66,83.3 L85.48,88.73 C86.23,89.85 86.6,91.16 87.35,92.1 L80.05,98.84 C79.85,99.04 79.68,99.4 80.05,99.78 C80.25,100.16 80.8,100.16 80.99,99.98 C84.93,97.18 88.86,94.18 92.79,91.18 L104.59,82.2 C112.44,76.2 120.11,70.22 127.79,64.23 C135.46,58.23 143.14,52.07 150.81,45.89 L151.01,45.71 C155.11,49.64 161.29,55.44 167.84,60.49 C165.04,61.99 162.41,63.49 159.98,65.36 C156.04,68.36 152.3,71.72 148.93,75.46 C145.56,79.21 142.38,82.96 139.57,87.06 C137.5,89.88 135.63,92.86 133.77,96.06 C122.34,105.41 111.12,114.96 100.27,124.86 C99.89,125.24 99.89,125.81 100.07,126.18 C100.44,126.54 101.01,126.73 101.37,126.54 C100.07,130.28 99.32,134.04 98.57,137.77 C97.47,142.99 96.34,148.23 95.4,153.47 L95.42,153.5 Z M178.14,178.57 C175.52,180.63 172.34,181.94 168.97,182.69 C165.6,183.44 161.87,183.43 158.3,183.05 C154.94,182.68 151.4,182.11 148.02,181.18 C147.65,178.18 148.22,174.81 149.52,171.81 C150.82,172.01 151.95,172.01 153.26,172.18 C153.82,172.18 154.2,171.98 154.38,171.43 C154.56,170.88 154.38,170.13 153.63,169.93 C152.69,169.56 151.95,169.37 151.01,168.99 C151.77,167.69 152.71,166.57 153.64,165.44 C154.76,164.32 155.89,163.19 157.01,162.26 C159.44,163.76 161.88,164.88 164.68,165.82 C167.86,166.76 171.23,167.12 174.78,166.76 C178.16,166.39 181.71,164.7 183.96,161.89 C186.02,159.46 186.96,156.65 187.14,153.66 C187.51,154.78 187.51,156.09 187.34,157.22 C187.14,158.72 186.96,160.4 186.58,161.9 C186.38,162.85 186.21,163.78 186.02,164.72 L183.22,166.4 C182.1,167.15 181.16,167.9 180.22,169.58 C181.92,170.14 183.22,169.95 184.52,169.58 C184.72,169.58 184.72,169.38 184.9,169.38 C184.7,169.95 184.7,170.33 184.53,170.88 C183.05,173.88 180.8,176.51 178.18,178.58 L178.14,178.57 Z M196.67,154.07 C195.73,156.12 194.24,157.99 192.55,159.67 C191.8,160.42 190.87,161.17 190.12,161.73 C190.12,160.05 189.92,158.36 189.56,156.68 C189.36,155.74 189.19,155 188.81,154.06 C188.44,153.31 188.06,152.38 187.13,151.81 C186.93,151.81 186.76,151.81 186.76,152.01 C185.64,154.81 183.76,157.25 181.71,158.93 C179.66,160.61 177.03,161.36 174.41,161.55 C171.79,161.75 168.98,161.18 166.18,160.43 C163.38,159.68 160.56,158.75 157.75,157.81 L157.38,157.61 C156.82,157.43 156.08,157.61 155.7,157.99 C154.2,159.86 153.08,161.55 151.77,163.42 C150.82,164.92 150.07,166.24 149.33,167.72 C145.96,166.42 142.78,165.3 139.41,163.99 C134.73,162.12 130.05,160.25 125.75,157.99 C121.25,155.94 116.95,153.51 113.21,150.69 C109.47,147.89 106.11,144.89 104.41,141.16 L104.41,140.96 C104.04,140.22 103.47,139.66 102.73,139.29 C102.73,138.92 102.93,138.35 102.93,137.99 C103.48,133.49 104.23,128.99 103.86,124.32 C119.01,113.65 133.79,102.42 148.39,90.82 C148.19,91.38 148.02,91.94 147.83,92.5 C146.89,95.3 146.53,98.5 146.53,101.67 C146.71,104.85 147.63,108.41 149.7,111.4 C151.76,114.4 154.57,116.64 157.37,117.95 C158.87,118.7 160.37,119.25 161.67,119.63 L163.93,120.2 L165.8,120.57 C170.67,121.87 175.34,123.75 179.65,126.17 C183.95,128.61 188.07,131.61 191.45,134.97 C194.83,138.33 197.43,142.65 197.8,146.97 C197.96,149.97 197.58,152.22 196.65,154.09 L196.67,154.07 Z" id="Shape" fill="#3F3E29"></path>
            <path d="M72.42,197.1 C70.92,199.16 69.8,201.6 69.24,204.02 C68.87,205.32 68.68,206.64 68.68,207.76 L68.48,211.5 C68.12,216.37 68.3,221.6 69.8,226.47 C71.3,231.34 73.36,235.83 75.8,240.13 C75.04,237.7 74.1,235.45 73.36,233.21 C72.62,230.97 71.86,228.54 71.3,226.11 C70.18,221.43 70.18,216.57 70.36,211.71 L70.56,207.96 C70.56,206.84 70.74,205.53 70.92,204.4 C71.48,202.14 72.42,199.9 73.54,197.84 C74.84,195.78 76.34,193.91 78.22,192.24 C79.9,190.54 81.96,189.04 84.22,187.94 C79.52,189.8 75.22,192.8 72.42,197.1 Z" id="Shape" fill="#3F3E29"></path>
        </g>
    </g>
</svg>