<svg viewBox="0 0 555 150" xmlns="http://www.w3.org/2000/svg"><path d="M.16.1C15.11.08 30.06-.06 45 .17c.26.19.79.56 1.05.75 18.2 18.21 36.46 36.35 54.67 54.55 17.64-17.94 35.66-35.53 53.39-53.39 1.04-1.02 2.18-2.24 3.81-2 12.03-.05 24.06 0 36.09-.02 2.33-.01 4.7-.2 6.99.38-13.9 13.27-27.27 27.11-40.97 40.6-29.9 29.79-59.78 59.6-89.68 89.39-6.56 6.41-12.83 13.13-19.58 19.31-14.94.43-29.92.14-44.88.14 24.21-23.95 48.14-48.18 72.44-72.02C52.17 52.05 26.25 25.99.16.1zM212.1.1c12.14-.08 24.28-.04 36.42-.01-.05 49.94-.03 99.89-.01 149.83-12.09-.08-24.19.24-36.27-.16.09-32.96-.06-65.92.08-98.89-31.63 31.83-63.55 63.37-95.26 95.11-1.76 1.58-3.29 4.29-6.04 3.84-16.32-.11-32.65.04-48.98-.08C112.08 99.88 162.05 49.95 212.1.1zm44.65.04c9.3-.17 18.6-.05 27.91-.04 16.55 16.89 33.46 33.44 50.22 50.13C351.62 33.5 368.39 16.79 385.16.09c9.23-.04 18.47-.03 27.7-.01-.1 49.95-.1 99.89 0 149.84-9.33-.02-18.67.12-28-.07.1-31.51.13-63.02-.02-94.52-16.71 16.7-33.18 33.63-50.01 50.21-16.96-16.54-33.41-33.56-50.14-50.31.09 31.56-.11 63.12.11 94.68-9.34 0-18.68.1-28.02-.03-.02-49.91.05-99.83-.03-149.74zM421.12.09c9.35.02 18.69-.13 28.04.06-.09 40.7-.04 81.39-.02 122.09 24.96-.07 49.93.01 74.9-.05 1.25.12 2.85-.24 3.78.89 8.88 8.99 17.96 17.77 26.79 26.81-44.5.09-88.99.05-133.49.03.11-49.95.12-99.89 0-149.83z"/></svg>